<?xml version="1.0" encoding="UTF-8" standalone="no"?>
<!DOCTYPE svg PUBLIC "-//W3C//DTD SVG 1.1//EN" "http://www.w3.org/Graphics/SVG/1.1/DTD/svg11.dtd">
<svg width="100%" height="100%" viewBox="0 0 1024 1024" version="1.1" xmlns="http://www.w3.org/2000/svg" xmlnsXlink="http://www.w3.org/1999/xlink" xmlSpace="preserve" xmlnsSerif="http://www.serif.com/" style="fill-rule:evenodd;clip-rule:evenodd;stroke-linecap:round;stroke-linejoin:round;stroke-miterlimit:1.5;">
    <g id="Inner">
        <g id="Inner-Circle" serifId="Inner Circle" transform="matrix(0.48662,0,0,0.48662,239.314,226.136)">
            <circle cx="560.368" cy="587.448" r="342.156" style="fill:rgb(215,177,91);stroke:black;stroke-width:8.56px;"/>
        </g>
        <path id="Inner-Circle1" serifId="Inner Circle" d="M394.385,394.195C424.511,364.114 466.099,345.5 512,345.5C557.873,345.5 599.439,364.092 629.568,394.148L512.137,511.58L512.206,512.016L394.385,394.195Z" style="fill:rgb(74,61,54);stroke:black;stroke-width:4.17px;"/>
        <g id="Inner-Digits" serifId="Inner Digits">
            <g transform="matrix(1,0,0,1,-34.3607,381)">
                <text x="513.732px" y="86.771px" style="font-family:'ChalkboardSE-Light', 'Chalkboard SE', cursive;font-size:125px;fill:rgb(217,190,68);">0</text>
            </g>
            <g transform="matrix(6.12323e-17,-1,1,6.12323e-17,381,1058.36)">
                <text x="513.732px" y="86.771px" style="font-family:'ChalkboardSE-Light', 'Chalkboard SE', cursive;font-size:125px;">3</text>
            </g>
            <g transform="matrix(-1,-1.22465e-16,1.22465e-16,-1,1058.36,643)">
                <text x="513.732px" y="86.771px" style="font-family:'ChalkboardSE-Light', 'Chalkboard SE', cursive;font-size:125px;">2</text>
            </g>
            <g transform="matrix(-1.83697e-16,1,-1,-1.83697e-16,643,-34.3607)">
                <text x="513.732px" y="86.771px" style="font-family:'ChalkboardSE-Light', 'Chalkboard SE', cursive;font-size:125px;">1</text>
            </g>
        </g>
    </g>
</svg>
